# xmcd
#
# Track frame offsets: 
#        150
#        13439
#        34489
#        50869
#        69588
#        77019
#        91327
#        96894
#        115956
#        132774
#        148963
#        161152
#        176586
#        190720
#        204107
#        216879
#
# Disc length: 3073 seconds
#
# Revision: 0
# Processed by: cddbd v1.5.2PL0 Copyright (c) Steve Scherf et al.
# Submitted via: ExactAudioCopy v0.99pb5
#
DISCID=ee0bff10
DTITLE=Steve James - Short Blue Stories
DYEAR=2008
DGENRE=Blues
TTITLE0=The Original High/Low Stomp
TTITLE1=Folk Radio
TTITLE2=Latex Road
TTITLE3=Worried Blues
TTITLE4=Why the Blues Don't Worry Me (part one)
TTITLE5=Reckon I Did
TTITLE6=Slide Mandolin
TTITLE7=Dough Roller
TTITLE8=New Precious Five
TTITLE9=Birmingham Steel
TTITLE10=Sparky's Tune
TTITLE11=Judge Harsh Blues
TTITLE12=The Same Thing Could Happen to You
TTITLE13=Factory Girl
TTITLE14=The Right Thing to Do
TTITLE15=Why the Blues Don't Worry Me (part two)
EXTD=
EXTT0=
EXTT1=
EXTT2=
EXTT3=
EXTT4=
EXTT5=
EXTT6=
EXTT7=
EXTT8=
EXTT9=
EXTT10=
EXTT11=
EXTT12=
EXTT13=
EXTT14=
EXTT15=
PLAYORDER=
